<?xml version="1.0" encoding="UTF-8" standalone="no"?><!DOCTYPE svg PUBLIC "-//W3C//DTD SVG 1.1//EN" "http://www.w3.org/Graphics/SVG/1.1/DTD/svg11.dtd"><svg width="100%" height="100%" viewBox="0 0 4267 4263" version="1.1" xmlns="http://www.w3.org/2000/svg" xmlns:xlink="http://www.w3.org/1999/xlink" xml:space="preserve" xmlns:serif="http://www.serif.com/" style="fill-rule:evenodd;clip-rule:evenodd;stroke-linecap:square;stroke-miterlimit:2;"><rect id="White" x="3.223" y="1.749" width="4259.58" height="4259.63" style="fill:none;"/><g id="White1" serif:id="White"><g><g><g id="F"><path d="M2533.71,1301.11l36.056,-256.552l1466.65,0l-36.056,256.552l-1466.65,-0Z" style="fill:#fff;stroke:#fff;stroke-width:158.34px;"/><path d="M2439.09,1974.37l1307.97,-0l-36.056,256.552l-1020.28,-0l-138.805,987.65l-287.694,-0l174.862,-1244.2Z" style="fill:#fff;stroke:#fff;stroke-width:158.34px;"/></g><path d="M1486.26,1272.93c-47.273,139.398 -951.154,1945.64 -951.154,1945.64l-305.489,-0l1140.44,-2174.02l309.939,0l584.236,2174.02l-327.733,-0c-0,-0 -433.163,-1827.99 -450.242,-1945.64Z" style="fill:#fff;stroke:#fff;stroke-width:158.34px;"/></g><g><g transform="matrix(189.269,0,0,189.269,4004.44,3180.25)"></g><text x="3860.21px" y="3180.25px" style="font-family:'Poppins-Bold', 'Poppins';font-weight:700;font-size:189.269px;fill:url(#_Linear1);">C</text><circle cx="3931.38" cy="3113.53" r="105.038" style="fill:none;stroke:#fff;stroke-width:28.01px;stroke-linecap:round;stroke-linejoin:round;stroke-miterlimit:1;"/></g></g></g><defs><linearGradient id="_Linear1" x1="0" y1="0" x2="1" y2="0" gradientUnits="userSpaceOnUse" gradientTransform="matrix(101.475,-60.8289,60.8289,101.475,8368.84,-7941.01)"><stop offset="0" style="stop-color:#fff;stop-opacity:1"/><stop offset="1" style="stop-color:#fff;stop-opacity:0"/></linearGradient></defs></svg>