<?xml version="1.0" encoding="UTF-8" standalone="no"?><!DOCTYPE svg PUBLIC "-//W3C//DTD SVG 1.1//EN" "http://www.w3.org/Graphics/SVG/1.1/DTD/svg11.dtd"><svg width="100%" height="100%" viewBox="0 0 4263 4267" version="1.1" xmlns="http://www.w3.org/2000/svg" xmlns:xlink="http://www.w3.org/1999/xlink" xml:space="preserve" xmlns:serif="http://www.serif.com/" style="fill-rule:evenodd;clip-rule:evenodd;stroke-linecap:square;stroke-miterlimit:2;"><rect id="Green" x="0.34" y="3.145" width="4259.58" height="4259.63" style="fill:none;"/><g id="Green1" serif:id="Green"><g><g><g id="F"><path d="M2530.83,1302.5l36.056,-256.551l1466.65,-0l-36.056,256.551l-1466.65,0Z" style="stroke:#000;stroke-width:158.34px;"/><path d="M2436.21,1975.77l1307.97,0l-36.056,256.552l-1020.27,0l-138.805,987.65l-287.694,0l174.861,-1244.2Z" style="stroke:#000;stroke-width:158.34px;"/></g><path d="M1483.37,1274.33c-47.273,139.398 -951.154,1945.64 -951.154,1945.64l-305.49,0l1140.44,-2174.02l309.938,-0l584.237,2174.02l-327.734,0c0,0 -433.162,-1827.99 -450.241,-1945.64Z" style="stroke:#000;stroke-width:158.34px;"/></g><g><g transform="matrix(189.269,0,0,189.269,4001.55,3181.65)"></g><text x="3857.33px" y="3181.65px" style="font-family:'Poppins-Bold', 'Poppins';font-weight:700;font-size:189.269px;fill:url(#_Linear1);">C</text><circle cx="3928.49" cy="3114.93" r="105.038" style="fill:none;stroke:#000;stroke-width:28.01px;stroke-linecap:round;stroke-linejoin:round;stroke-miterlimit:1;"/></g></g></g><defs><linearGradient id="_Linear1" x1="0" y1="0" x2="1" y2="0" gradientUnits="userSpaceOnUse" gradientTransform="matrix(101.475,-60.8289,60.8289,101.475,8365.96,-7939.62)"><stop offset="0" style="stop-color:#000;stop-opacity:1"/><stop offset="1" style="stop-color:#000;stop-opacity:0"/></linearGradient></defs></svg>